<?xml version="1.0" encoding="utf-8"?>
<!-- Generator: Adobe Illustrator 26.0.3, SVG Export Plug-In . SVG Version: 6.00 Build 0)  -->
<svg version="1.1" id="Layer_1" xmlns="http://www.w3.org/2000/svg" xmlns:xlink="http://www.w3.org/1999/xlink" x="0px" y="0px"
	 viewBox="0 0 765.4 199.1" style="enable-background:new 0 0 765.4 199.1;" xml:space="preserve">
<style type="text/css">
	.st0{fill:#00a0df;}
</style>
<g>
	<path class="st0" d="M65.9,18.7c15.3,0,33.7,4.4,33.7,17.7c0,6.1-4.4,12.1-11,12.1c-6,0-12.2-5.3-22.1-5.3
		C46,43.1,37.9,59.7,37.9,77c0,17.7,9.1,32.9,26.5,32.9c15.8,0,18.3-5.2,24.9-5.2c10,0,11.3,8.5,11.3,11.7
		c0,13.9-21.1,18.8-35.1,18.8c-35.1,0-54.8-26.3-54.8-58.3C10.7,43.1,32.4,18.7,65.9,18.7z"/>
	<path class="st0" d="M184.9,121c0,7-5,12.7-12.2,12.7c-6,0-9.7-4.1-11.4-7.8c-5.5,6.7-11.7,9.4-21,9.4c-21.3,0-37.7-19.6-37.7-44.2
		c0-24.6,16.4-44.2,37.7-44.2c9.2,0,15.5,2.7,21,9.4c1.7-3.8,5.5-7.8,11.4-7.8c7.2,0,12.2,5.6,12.2,12.7V121z M127,91.1
		c0,11.3,6,20.7,16.8,20.7c10.8,0,16.8-9.4,16.8-20.7c0-11.3-6-20.7-16.8-20.7C132.9,70.4,127,79.8,127,91.1z"/>
	<path class="st0" d="M195.7,61.1c0-7,5-12.7,12.2-12.7c6.6,0,10.6,4.2,12.2,7.8c4.1-4.9,10-9.4,16.9-9.4c6.3,0,12.5,5,12.5,12.7
		c0,8.5-6.4,10.5-15.3,13.2c-10.6,3.1-14.1,6-14.1,18.5V121c0,7-5,12.7-12.2,12.7c-7.2,0-12.2-5.6-12.2-12.7V61.1z"/>
	<path class="st0" d="M369.4,72h-21.5c-7.8,0-12.8-3.4-12.8-11.3c0-7.8,5-11.3,12.8-11.3h47c4.5,0,6.9,0.6,9.2,3
		c1.6,1.6,2.2,3.6,2.2,5.8c0,2.2-1.1,4.2-3.1,7l-33.5,44.9h25.8c7.8,0,12.8,3.4,12.8,11.3c0,7.8-5,11.3-12.8,11.3h-49.5
		c-4.5,0-6-0.5-8.1-1.7c-3.1-2-3.6-5.3-3.6-6.9c0-1.9,0.2-4.1,3.8-9.1L369.4,72z"/>
	<path class="st0" d="M410.6,73.8c-2-5.5-3.4-9.2-3.8-13.6c0-6.4,4.2-11.7,12.4-11.7c5.8,0,10,3.1,11.6,8.6l11.9,39.6h0.3l11-34.3
		c2-6.4,4.4-13.9,13.2-13.9c8.8,0,11.1,7.5,13.2,13.9l11,34.3h0.3l11.9-39.6c1.6-5.5,5.8-8.6,11.6-8.6c8.1,0,12.4,5.3,12.4,11.7
		c-0.3,4.4-1.7,8.1-3.8,13.6l-17.1,47.8c-2.8,8-6.9,12.1-15.2,12.1c-8.8,0-11.7-4.5-14.6-12.8L467.3,92h-0.3l-9.6,28.8
		c-2.8,8.3-5.8,12.8-14.6,12.8c-8.3,0-12.4-4.1-15.2-12.1L410.6,73.8z"/>
	<path class="st0" d="M611.3,121c0,7-5,12.7-12.2,12.7c-6,0-9.7-4.1-11.4-7.8c-5.5,6.7-11.7,9.4-21,9.4c-21.3,0-37.7-19.6-37.7-44.2
		c0-24.6,16.4-44.2,37.7-44.2c9.2,0,15.5,2.7,21,9.4c1.7-3.8,5.5-7.8,11.4-7.8c7.2,0,12.2,5.6,12.2,12.7V121z M553.4,91.1
		c0,11.3,6,20.7,16.8,20.7c10.8,0,16.8-9.4,16.8-20.7c0-11.3-6-20.7-16.8-20.7C559.3,70.4,553.4,79.8,553.4,91.1z"/>
	<path class="st0" d="M622.1,61.1c0-7,5-12.7,12.2-12.7c6.6,0,10.6,4.2,12.2,7.8c4.1-4.9,10-9.4,16.9-9.4c6.3,0,12.5,5,12.5,12.7
		c0,8.5-6.4,10.5-15.3,13.2c-10.6,3.1-14.1,6-14.1,18.5V121c0,7-5,12.7-12.2,12.7c-7.2,0-12.2-5.6-12.2-12.7V61.1z"/>
	<path class="st0" d="M700.3,99c0,5.2,3.9,13.6,19.6,13.6c12.1,0,19.4-7.7,25.1-7.7c5.5,0,10.2,4.2,10.2,10.5
		c0,11.9-19.9,19.7-38.4,19.7c-26.3,0-42.8-19.6-42.8-44.2c0-23.5,17.7-44.2,42.8-44.2c24.1,0,39.6,20.2,39.6,41.5
		c0,8.6-4.1,10.6-11.9,10.6H700.3z M731.9,82.3c0-5.5-6.3-14.7-15.8-14.7c-9.6,0-15.8,9.2-15.8,14.7H731.9z"/>
	<g>
		<path class="st0" d="M289,132.7h26.5c7.1,0,12.9-5,12.9-12.1c0-0.2,0-0.5,0-0.7c-0.3-6.3-5.2-10.8-11.4-11.4c-0.5,0-1-0.1-1.4-0.1
			l-21.6,0.1c-10.2,0-17-7.4-17-18.2c0-8.4,6-18,17-18c0,0,22.5,0,22.9,0c6.5-0.6,11.5-5.4,11.5-12.1V26.6c0-9.6-5.4-14.4-12.9-14.4
			c-7.5,0-12.9,4.9-12.9,14.4v25h-6.1v0h-8.3c-24.4,0-37.9,17.1-37.9,40.5C250.3,119.1,269.2,132.7,289,132.7"/>
	</g>
	<path class="st0" d="M317.9,102.1h-4.8c-5.8,0-10.5-4.7-10.5-10.5v-2.1c0-5.8,4.7-10.5,10.5-10.5h4.8c5.8,0,10.5,4.7,10.5,10.5v2.1
		C328.3,97.4,323.7,102.1,317.9,102.1z"/>
	<g>
		<path class="st0" d="M127.1,170.9c1.9,0,3,1.1,3,3.4c0,6.6-4.4,11.8-11.2,11.8c-7.8,0-12.1-5.8-12.1-12.9
			c0-7.5,5.2-12.9,12.1-12.9c4.7,0,9.6,1.9,9.6,5.4c0,1.4-1,2.4-2.5,2.4c-2,0-3-2.6-6.8-2.6c-3.9,0-6.4,3.4-6.4,7.7
			c0,3.8,1.9,7.7,6.2,7.7c3,0,5-1.9,5.3-4.8H121c-1.8,0-2.8-1-2.8-2.6c0-1.6,1-2.6,2.8-2.6H127.1z"/>
		<path class="st0" d="M137.3,169.7c0-1.6,1.1-2.8,2.7-2.8c1.5,0,2.4,0.9,2.7,1.7c0.9-1.1,2.2-2.1,3.7-2.1c1.4,0,2.8,1.1,2.8,2.8
			c0,1.9-1.4,2.3-3.4,2.9c-2.4,0.7-3.1,1.3-3.1,4.1v6.6c0,1.6-1.1,2.8-2.7,2.8s-2.7-1.2-2.7-2.8V169.7z"/>
		<path class="st0" d="M159.6,178.1c0,1.1,0.9,3,4.3,3c2.7,0,4.3-1.7,5.6-1.7c1.2,0,2.3,0.9,2.3,2.3c0,2.6-4.4,4.4-8.5,4.4
			c-5.8,0-9.5-4.3-9.5-9.8c0-5.2,3.9-9.8,9.5-9.8c5.3,0,8.8,4.5,8.8,9.2c0,1.9-0.9,2.4-2.6,2.4H159.6z M166.6,174.3
			c0-1.2-1.4-3.3-3.5-3.3c-2.1,0-3.5,2-3.5,3.3H166.6z"/>
		<path class="st0" d="M184,178.1c0,1.1,0.9,3,4.3,3c2.7,0,4.3-1.7,5.6-1.7c1.2,0,2.3,0.9,2.3,2.3c0,2.6-4.4,4.4-8.5,4.4
			c-5.8,0-9.5-4.3-9.5-9.8c0-5.2,3.9-9.8,9.5-9.8c5.3,0,8.8,4.5,8.8,9.2c0,1.9-0.9,2.4-2.6,2.4H184z M191,174.3
			c0-1.2-1.4-3.3-3.5-3.3c-2.1,0-3.5,2-3.5,3.3H191z"/>
		<path class="st0" d="M204.6,172.1h-0.6c-1.7,0-2.8-0.8-2.8-2.5s1.1-2.5,2.8-2.5h0.6v-3.5c0-1.6,1.1-2.8,2.7-2.8
			c1.6,0,2.7,1.2,2.7,2.8v3.5h1.5c1.7,0,2.8,0.8,2.8,2.5s-1.1,2.5-2.8,2.5H210v10.9c0,1.6-1.1,2.8-2.7,2.8c-1.6,0-2.7-1.2-2.7-2.8
			V172.1z"/>
		<path class="st0" d="M222.4,158.8c1.8,0,3.2,1.4,3.2,3.2s-1.5,3.2-3.2,3.2c-1.8,0-3.2-1.4-3.2-3.2S220.6,158.8,222.4,158.8z
			 M219.7,169.7c0-1.6,1.1-2.8,2.7-2.8c1.6,0,2.7,1.2,2.7,2.8v13.3c0,1.6-1.1,2.8-2.7,2.8c-1.6,0-2.7-1.2-2.7-2.8V169.7z"/>
		<path class="st0" d="M232.5,169.7c0-1.6,1.1-2.8,2.7-2.8c1.5,0,2.4,0.9,2.7,1.7c0.9-1.4,2.3-2.1,4.7-2.1c3.7,0,6.7,1.9,6.7,6.4v10
			c0,1.6-1.1,2.8-2.7,2.8c-1.6,0-2.7-1.2-2.7-2.8v-8.6c0-1.9-1.1-3.3-3-3.3c-1.9,0-3,1.4-3,3.3v8.6c0,1.6-1.1,2.8-2.7,2.8
			c-1.6,0-2.7-1.2-2.7-2.8V169.7z"/>
		<path class="st0" d="M274.4,183.7c0,6.9-4.5,9.5-9.8,9.5c-2.8,0-8.1-1.1-8.1-4c0-1.2,1.2-2.4,2.3-2.4c1.6,0,2.6,1.6,5.7,1.6
			c3.4,0,4.5-1.8,4.5-4.8h-0.1c-1.2,1.7-3.1,2.1-4.9,2.1c-5.2,0-7.8-4.5-7.8-9.4c0-5.4,3.6-9.8,8.4-9.8c2,0,3.4,0.6,4.7,2.1
			c0.4-0.8,1.2-1.7,2.5-1.7c1.6,0,2.7,1.2,2.7,2.8V183.7z M265.2,171.7c-2.4,0-3.7,2.1-3.7,4.6c0,2.6,1.3,4.7,3.7,4.7
			c2.4,0,3.7-2,3.7-4.7C269,173.8,267.6,171.7,265.2,171.7z"/>
		<path class="st0" d="M308.2,160.3c3.4,0,7.5,1,7.5,3.9c0,1.4-1,2.7-2.4,2.7c-1.3,0-2.7-1.2-4.9-1.2c-4.5,0-6.4,3.7-6.4,7.5
			c0,3.9,2,7.3,5.9,7.3c3.5,0,4.1-1.1,5.5-1.1c2.2,0,2.5,1.9,2.5,2.6c0,3.1-4.7,4.2-7.8,4.2c-7.8,0-12.1-5.8-12.1-12.9
			C296,165.7,300.8,160.3,308.2,160.3z"/>
		<path class="st0" d="M339.6,182.9c0,1.6-1.1,2.8-2.7,2.8c-1.3,0-2.2-0.9-2.5-1.7c-1.2,1.5-2.6,2.1-4.7,2.1c-4.7,0-8.4-4.3-8.4-9.8
			c0-5.4,3.6-9.8,8.4-9.8c2,0,3.4,0.6,4.7,2.1c0.4-0.8,1.2-1.7,2.5-1.7c1.6,0,2.7,1.2,2.7,2.8V182.9z M326.8,176.3
			c0,2.5,1.3,4.6,3.7,4.6c2.4,0,3.7-2.1,3.7-4.6c0-2.5-1.3-4.6-3.7-4.6C328.1,171.7,326.8,173.8,326.8,176.3z"/>
		<path class="st0" d="M347.1,169.7c0-1.6,1.1-2.8,2.7-2.8c1.5,0,2.4,0.9,2.7,1.7c0.9-1.1,2.2-2.1,3.7-2.1c1.4,0,2.8,1.1,2.8,2.8
			c0,1.9-1.4,2.3-3.4,2.9c-2.4,0.7-3.1,1.3-3.1,4.1v6.6c0,1.6-1.1,2.8-2.7,2.8s-2.7-1.2-2.7-2.8V169.7z"/>
		<path class="st0" d="M381.8,182.9c0,1.6-1.1,2.8-2.7,2.8c-1.3,0-2.2-0.9-2.5-1.7c-1.2,1.5-2.6,2.1-4.7,2.1c-4.7,0-8.4-4.3-8.4-9.8
			c0-5.4,3.6-9.8,8.4-9.8c2.3,0,3.5,0.7,4.5,1.5v-6.4c0-1.6,1.1-2.8,2.7-2.8s2.7,1.2,2.7,2.8V182.9z M369,176.3
			c0,2.5,1.3,4.6,3.7,4.6c2.4,0,3.7-2.1,3.7-4.6c0-2.5-1.3-4.6-3.7-4.6C370.3,171.7,369,173.8,369,176.3z"/>
		<path class="st0" d="M390.5,179.7c1.7,0,2.9,1.6,5.2,1.6c1.1,0,1.5-0.5,1.5-1.1c0-1.1-1.2-1.2-4.2-2.5c-2.8-1.1-4.3-2.2-4.3-5.1
			c0-3.1,2.6-6.1,7-6.1c2.2,0,6.2,1,6.2,3.9c0,1.4-1,2.3-2.3,2.3c-1.1,0-2.7-1.4-4.3-1.4c-0.7,0-1.4,0.3-1.4,1.1
			c0,2.1,8.5,1.6,8.5,7.6c0,3.8-3.2,6.1-6.9,6.1c-3.4,0-7.2-1.4-7.2-3.7C388.3,180.8,389.3,179.7,390.5,179.7z"/>
		<path class="st0" d="M447.5,173.2c0,7.8-4.8,12.9-12.1,12.9c-7.3,0-12.1-5.1-12.1-12.9c0-7.8,4.8-12.9,12.1-12.9
			C442.7,160.3,447.5,165.3,447.5,173.2z M429.3,173.2c0,3.9,1.8,7.7,6.1,7.7c4.3,0,6.1-3.8,6.1-7.7c0-3.9-1.8-7.7-6.1-7.7
			C431.1,165.5,429.3,169.2,429.3,173.2z"/>
		<path class="st0" d="M454.6,169.7c0-1.6,1.1-2.8,2.7-2.8c1.5,0,2.4,0.9,2.7,1.7c0.9-1.4,2.3-2.1,4.7-2.1c3.7,0,6.7,1.9,6.7,6.4v10
			c0,1.6-1.1,2.8-2.7,2.8s-2.7-1.2-2.7-2.8v-8.6c0-1.9-1.1-3.3-3-3.3s-3,1.4-3,3.3v8.6c0,1.6-1.1,2.8-2.7,2.8s-2.7-1.2-2.7-2.8
			V169.7z"/>
		<path class="st0" d="M493.7,163.6c0-1.8,1.4-2.8,2.8-2.8h6.7c7.4,0,11.5,5.8,11.5,12.2c0,8.1-5.4,12.5-11.5,12.5h-6.7
			c-1.5,0-2.8-1-2.8-2.8V163.6z M499.3,180.3h3c4.4,0,6.4-3,6.4-7.3c0-4.2-2.1-7-6.2-7h-3.2V180.3z"/>
		<path class="st0" d="M526.9,178.1c0,1.1,0.9,3,4.3,3c2.7,0,4.3-1.7,5.6-1.7c1.2,0,2.3,0.9,2.3,2.3c0,2.6-4.4,4.4-8.5,4.4
			c-5.8,0-9.5-4.3-9.5-9.8c0-5.2,3.9-9.8,9.5-9.8c5.3,0,8.8,4.5,8.8,9.2c0,1.9-0.9,2.4-2.6,2.4H526.9z M533.9,174.3
			c0-1.2-1.4-3.3-3.5-3.3c-2.1,0-3.5,2-3.5,3.3H533.9z"/>
		<path class="st0" d="M546.1,169.7c0-1.6,1.1-2.8,2.7-2.8c1.5,0,2.4,0.9,2.7,1.7c0.9-1.4,2.7-2.1,4.7-2.1c1.6,0,3.7,0.6,5,2.2
			c1.3-1,2.9-2.2,5.2-2.2c3.7,0,6.7,1.9,6.7,6.4v10c0,1.6-1.1,2.8-2.7,2.8c-1.6,0-2.7-1.2-2.7-2.8v-8.6c0-1.7-0.9-3.3-2.7-3.3
			c-1.8,0-2.7,1.6-2.7,3.3v8.6c0,1.6-1.1,2.8-2.7,2.8c-1.6,0-2.7-1.2-2.7-2.8v-8.6c0-1.7-0.9-3.3-2.7-3.3c-1.8,0-2.7,1.6-2.7,3.3
			v8.6c0,1.6-1.1,2.8-2.7,2.8c-1.6,0-2.7-1.2-2.7-2.8V169.7z"/>
		<path class="st0" d="M598.2,182.9c0,1.6-1.1,2.8-2.7,2.8c-1.3,0-2.2-0.9-2.5-1.7c-1.2,1.5-2.6,2.1-4.7,2.1c-4.7,0-8.4-4.3-8.4-9.8
			c0-5.4,3.6-9.8,8.4-9.8c2,0,3.4,0.6,4.7,2.1c0.4-0.8,1.2-1.7,2.5-1.7c1.6,0,2.7,1.2,2.7,2.8V182.9z M585.4,176.3
			c0,2.5,1.3,4.6,3.7,4.6c2.4,0,3.7-2.1,3.7-4.6c0-2.5-1.3-4.6-3.7-4.6C586.7,171.7,585.4,173.8,585.4,176.3z"/>
		<path class="st0" d="M605.6,169.7c0-1.6,1.1-2.8,2.7-2.8c1.5,0,2.4,0.9,2.7,1.7c0.9-1.4,2.3-2.1,4.7-2.1c3.7,0,6.7,1.9,6.7,6.4v10
			c0,1.6-1.1,2.8-2.7,2.8c-1.6,0-2.7-1.2-2.7-2.8v-8.6c0-1.9-1.1-3.3-3-3.3c-1.9,0-3,1.4-3,3.3v8.6c0,1.6-1.1,2.8-2.7,2.8
			c-1.6,0-2.7-1.2-2.7-2.8V169.7z"/>
		<path class="st0" d="M647.5,182.9c0,1.6-1.1,2.8-2.7,2.8c-1.3,0-2.2-0.9-2.5-1.7c-1.2,1.5-2.6,2.1-4.7,2.1c-4.7,0-8.4-4.3-8.4-9.8
			c0-5.4,3.6-9.8,8.4-9.8c2.3,0,3.5,0.7,4.5,1.5v-6.4c0-1.6,1.1-2.8,2.7-2.8c1.6,0,2.7,1.2,2.7,2.8V182.9z M634.7,176.3
			c0,2.5,1.3,4.6,3.7,4.6c2.4,0,3.7-2.1,3.7-4.6c0-2.5-1.3-4.6-3.7-4.6C636,171.7,634.7,173.8,634.7,176.3z"/>
	</g>
</g>
</svg>
